<svg xmlns="http://www.w3.org/2000/svg" viewBox="0 0 256 256" width="256" height="256" role="img" aria-label="Barid: a relay of messages around an eight-pointed star"><rect width="256" height="256" rx="58" fill="#034241"/><polygon points="128.0,14.0 158.6,54.1 208.6,47.4 201.9,97.4 242.0,128.0 201.9,158.6 208.6,208.6 158.6,201.9 128.0,242.0 97.4,201.9 47.4,208.6 54.1,158.6 14.0,128.0 54.1,97.4 47.4,47.4 97.4,54.1" fill="none" stroke="#1d7f7a" stroke-width="8" stroke-linejoin="round"/><polygon points="128.0,68.0 170.4,85.6 188.0,128.0 170.4,170.4 128.0,188.0 85.6,170.4 68.0,128.0 85.6,85.6" fill="none" stroke="#f2c545" stroke-width="7" stroke-linejoin="round"/><circle cx="128.0" cy="68.0" r="19" fill="#f2c545"/><circle cx="170.4" cy="85.6" r="13" fill="#86f9e4"/><circle cx="188.0" cy="128.0" r="13" fill="#86f9e4"/><circle cx="170.4" cy="170.4" r="13" fill="#86f9e4"/><circle cx="128.0" cy="188.0" r="13" fill="#86f9e4"/><circle cx="85.6" cy="170.4" r="13" fill="#86f9e4"/><circle cx="68.0" cy="128.0" r="13" fill="#86f9e4"/><circle cx="85.6" cy="85.6" r="13" fill="#86f9e4"/></svg>
